<svg xmlns="http://www.w3.org/2000/svg" xmlns:xlink="http://www.w3.org/1999/xlink" x="0px" y="0px" viewBox="0 0 100 100" style="enable-background:new 0 0 100 100;" xml:space="preserve">	<style type="text/css">g{fill:currentcolor}</style>	<g>		<g class="chat-anim-0">			<path d="M72.4,44.9h9.3c9.3,0,16.8,7.5,16.8,16.8S91,78.5,81.7,78.5l0,0c-2.3,0-2.4,0.4-2.4,3.1v2c0,1.9-0.6,3.5-2.3,2.5 c-3.1-1.8-5.4-3.4-7.6-4.7c-3-1.7-5.1-2.9-8.6-2.9c-9.2,0-16.7-7.4-16.8-16.6c0.4-0.2,0.8-0.4,1.2-0.5c1.4-0.5,2.8-0.8,4.3-0.8 C59.6,60.5,68.7,54.3,72.4,44.9"></path>		</g>		<g class="chat-anim-1">			<path d="M49.5,16.5h-26C12.7,16.5,4,25.2,4,36s8.7,19.5,19.5,19.5c2,0,3,0.3,3.7,1.3c0.6,1.2,0.8,2.6,0.6,3.9v2.5   c0,0.7,0.1,1.4,0.4,2l0,0l0,0c0.1,0,0.2-0.1,0.4-0.2c1.6-1,3.1-1.9,4.4-2.7c1.9-1.2,3.5-2.2,5.1-3.1c1.7-1.1,3.5-2,5.4-2.7   c1.9-0.8,4-1.1,6.1-1.1c10.8-0.1,19.4-8.9,19.3-19.6C68.7,25.2,60.1,16.6,49.5,16.5 M23.5,13.6h26c12.3,0.2,22.2,10.4,22,22.7   c-0.2,12-9.9,21.8-22,22c-1.7,0-3.5,0.3-5.1,0.9c-1.7,0.7-3.4,1.6-4.9,2.5s-3.2,1.9-5,3.1c-1.4,0.9-2.9,1.8-4.4,2.7   c-0.6,0.4-1.2,0.6-1.9,0.6c-0.5,0-1-0.1-1.4-0.4s-0.7-0.6-0.9-1c-0.6-1.1-0.8-2.3-0.8-3.5v-2.5c0.1-0.8,0-1.6-0.1-2.3   c-0.5-0.1-0.9-0.1-1.4,0C11.3,58.2,1.4,48,1.6,35.7C1.7,23.6,11.4,13.8,23.5,13.6"></path>			<path d="M36.5,32.6c1.8,0,3.2,1.4,3.2,3.2S38.3,39,36.5,39s-3.2-1.4-3.2-3.2S34.7,32.6,36.5,32.6L36.5,32.6 M50.5,32.6   c1.8,0,3.2,1.4,3.2,3.2S52.3,39,50.5,39s-3.2-1.4-3.2-3.2S48.7,32.6,50.5,32.6L50.5,32.6 M22.5,32.6c1.8,0,3.2,1.4,3.2,3.2   S24.3,39,22.5,39c-1.8,0-3.2-1.4-3.2-3.2S20.7,32.6,22.5,32.6L22.5,32.6"></path>		</g>	</g></svg>